<?xml version="1.0" encoding="UTF-8" standalone="no"?>
<!-- Created with Inkscape (http://www.inkscape.org/) -->

<svg
   xmlns:dc="http://purl.org/dc/elements/1.1/"
   xmlns:cc="http://creativecommons.org/ns#"
   xmlns:rdf="http://www.w3.org/1999/02/22-rdf-syntax-ns#"
   xmlns:svg="http://www.w3.org/2000/svg"
   xmlns="http://www.w3.org/2000/svg"
   xmlns:sodipodi="http://sodipodi.sourceforge.net/DTD/sodipodi-0.dtd"
   xmlns:inkscape="http://www.inkscape.org/namespaces/inkscape"
   width="154.1492"
   height="154.85638"
   id="svg37761"
   version="1.1"
   inkscape:version="0.48.4 r9939"
   sodipodi:docname="Nieuw document 60">
  <defs
     id="defs37763" />
  <sodipodi:namedview
     id="base"
     pagecolor="#ffffff"
     bordercolor="#666666"
     borderopacity="1.0"
     inkscape:pageopacity="0.0"
     inkscape:pageshadow="2"
     inkscape:zoom="3.959798"
     inkscape:cx="134.51569"
     inkscape:cy="72.190689"
     inkscape:document-units="px"
     inkscape:current-layer="layer1"
     showgrid="false"
     fit-margin-top="0"
     fit-margin-left="0"
     fit-margin-right="0"
     fit-margin-bottom="0"
     inkscape:window-width="1600"
     inkscape:window-height="837"
     inkscape:window-x="-8"
     inkscape:window-y="-8"
     inkscape:window-maximized="1" />
  <metadata
     id="metadata37766">
    <rdf:RDF>
      <cc:Work
         rdf:about="">
        <dc:format>image/svg+xml</dc:format>
        <dc:type
           rdf:resource="http://purl.org/dc/dcmitype/StillImage" />
        <dc:title></dc:title>
      </cc:Work>
    </rdf:RDF>
  </metadata>
  <g
     inkscape:label="Laag 1"
     inkscape:groupmode="layer"
     id="layer1"
     transform="translate(-254.35397,-314.93399)">
    <rect
       style="fill:#da121a;fill-opacity:1;fill-rule:evenodd;stroke:none"
       id="rect37648"
       width="154.1492"
       height="154.85638"
       x="254.35397"
       y="314.93399" />
    <rect
       style="fill:#000000;fill-opacity:1;fill-rule:evenodd;stroke:none"
       id="rect37650"
       width="51.972401"
       height="154.85638"
       x="305.26559"
       y="314.93399" />
    <path
       id="path3653-0-9"
       d="m 322.23004,375.25813 -7.9564,7.10225 9.9598,10.45759 -9.8453,10.34577 7.8419,7.27005 9.2729,-10.01031 9.2157,9.78658 7.8991,-7.10225 -9.788,-10.34577 9.7309,-10.34577 -7.842,-7.04633 -9.2157,9.67477 -9.2729,-9.78658 z"
       style="fill:#ffffff;fill-opacity:1;stroke:#000000;stroke-width:0.76877713px;stroke-linecap:butt;stroke-linejoin:miter;stroke-opacity:0"
       inkscape:connector-curvature="0" />
    <path
       sodipodi:nodetypes="cccccccccccccccccc"
       id="path3655-3-8"
       d="m 314.33624,382.32399 2.0643,0.19777 5.6665,-5.25929 0.162,-1.97717 -0.04,2.13531 9.3497,9.68819 0,-2.09579 0.162,2.09579 9.0258,-9.60908 0,-2.01672 0.162,2.0958 5.5045,4.98254 2.1452,-0.11872 -7.8117,-7.03873 -9.2283,9.64868 -9.2687,-9.80683 -7.8926,7.07825 -1e-4,0 z"
       style="fill:#ffffff;fill-opacity:0.13953486;stroke:#000000;stroke-width:0.76877713px;stroke-linecap:butt;stroke-linejoin:miter;stroke-opacity:0"
       inkscape:connector-curvature="0" />
    <path
       id="path3653-0-9-7"
       d="m 322.47814,321.04043 -7.9564,7.10225 9.9598,10.45759 -9.8453,10.34577 7.8419,7.27005 9.2729,-10.01031 9.2157,9.78658 7.8991,-7.10225 -9.788,-10.34577 9.7309,-10.34577 -7.842,-7.04633 -9.2157,9.67477 -9.2729,-9.78658 z"
       style="fill:#ffffff;fill-opacity:1;stroke:#000000;stroke-width:0.76877713px;stroke-linecap:butt;stroke-linejoin:miter;stroke-opacity:0"
       inkscape:connector-curvature="0" />
    <path
       sodipodi:nodetypes="cccccccccccccccccc"
       id="path3655-3-8-2"
       d="m 314.58434,328.10629 2.0643,0.19777 5.6665,-5.25929 0.162,-1.97717 -0.04,2.13531 9.3497,9.68819 0,-2.09579 0.162,2.09579 9.0258,-9.60908 0,-2.01672 0.162,2.0958 5.5045,4.98254 2.1452,-0.11872 -7.8117,-7.03873 -9.2283,9.64868 -9.2687,-9.80683 -7.8926,7.07825 -10e-5,0 z"
       style="fill:#ffffff;fill-opacity:0.13953486;stroke:#000000;stroke-width:0.76877713px;stroke-linecap:butt;stroke-linejoin:miter;stroke-opacity:0"
       inkscape:connector-curvature="0" />
    <path
       id="path3653-0-9-72"
       d="m 322.91994,425.69223 -7.9564,7.10225 9.9598,10.45759 -9.8453,10.34577 7.8419,7.27005 9.2729,-10.01031 9.2157,9.78658 7.8991,-7.10225 -9.788,-10.34577 9.7309,-10.34577 -7.842,-7.04633 -9.2157,9.67477 -9.2729,-9.78658 z"
       style="fill:#ffffff;fill-opacity:1;stroke:#000000;stroke-width:0.76877713px;stroke-linecap:butt;stroke-linejoin:miter;stroke-opacity:0"
       inkscape:connector-curvature="0" />
    <path
       sodipodi:nodetypes="cccccccccccccccccc"
       id="path3655-3-8-6"
       d="m 315.02614,432.75809 2.0643,0.19777 5.6665,-5.25929 0.162,-1.97717 -0.04,2.13531 9.3497,9.68819 0,-2.09579 0.162,2.09579 9.0258,-9.60908 0,-2.01672 0.162,2.0958 5.5045,4.98254 2.1452,-0.11872 -7.8117,-7.03873 -9.2283,9.64868 -9.2687,-9.80683 -7.8926,7.07825 -10e-5,0 z"
       style="fill:#ffffff;fill-opacity:0.13953486;stroke:#000000;stroke-width:0.76877713px;stroke-linecap:butt;stroke-linejoin:miter;stroke-opacity:0"
       inkscape:connector-curvature="0" />
  </g>
</svg>
