<svg xmlns="http://www.w3.org/2000/svg" width="376" height="19" fill="none" class="xm:hidden"><path fill="#fff" d="M4.4 3.9v4.2h7.2v3.5H4.4v7H0V.3h13.5v3.6H4.4ZM42 14.9v3.6H30V.3h4.4v14.6H42ZM59.8 15.9c-1.4-1.9-2-4.2-2-6.5 0-4.8 2.6-9.3 8.2-9.3 2.6 0 4.5.8 6 2.8 1.4 1.7 2 4.4 2 6.5 0 2.1-.5 4.7-1.7 6.3-1.4 2.1-3.7 3.1-6.3 3.1-2.6 0-4.7-.9-6.2-2.9ZM63 5.6c-.4 1.1-.5 2.6-.5 3.7 0 2.3.4 5.9 3.5 5.9 1.4 0 2.3-.7 2.8-2.1.4-.9.5-2.6.5-3.7 0-1.4-.2-2.9-.7-4.2-.5-1.3-1.3-1.7-2.6-1.7-1.6 0-2.5.8-3 2.1ZM112.4 18.6H108l-3.1-12-2.9 12h-4.2L92.8.3h4.5l2.9 12.2L103.3.3h4l3.2 12.2.2-.8L113.5.2h3.6l-4.7 18.4ZM189 18.6h-2.4V2.3h-5.4v-2h13.1v2h-5.4l.1 16.3ZM221.5 18.6l-3.5-7.9h-5.1v7.9h-2.4V.3h7c1.6 0 3.1.2 4.2 1.1 1.2.9 2 2.4 2 4 0 2.1-1.4 4.2-3.5 4.7l3.7 8.4h-2.6v.2h.2v-.1Zm-4.3-9.8c1.2 0 2.3-.2 3.2-1.1.7-.7.9-1.4.9-2.4 0-1.1-.4-2-1.4-2.6-.8-.5-1.6-.5-2.6-.5h-4.7v6.5l4.6.1ZM254.7 18.6h-2.4l-1.9-5.4h-7l-1.7 5.4h-2L245.8.3h2.6l6.3 18.3Zm-7.8-15.9-2.9 8.8h5.7l-2.8-8.8ZM272.3.3h6c2.6 0 4.7.5 6.5 2.6 1.6 1.9 2.3 4.2 2.3 6.5s-.7 4.4-2 6.3c-1.4 2-3.5 2.9-6 2.9h-6.6V.3h-.2Zm5.8 16.2c2.1 0 3.9-.5 5.2-2.3.9-1.4 1.4-3.2 1.4-4.9 0-1.9-.5-3.9-1.7-5.4-1.4-1.6-2.8-1.9-4.8-1.9h-3.5v14.4c0 .1 3.4.1 3.4.1ZM317.2 18.6H305V.3h11.9v2h-9.6V8h7.6v1.9h-7.6v6.6h9.9v2.1ZM345.3 18.6l-3.5-7.9h-5.2v7.9h-2.4V.3h7c1.6 0 3.1.2 4.2 1.1 1.2.9 2 2.4 2 4 0 2.1-1.4 4.2-3.5 4.7l3.7 8.4H345v.2h.3v-.1Zm-4.2-9.8c1.2 0 2.3-.2 3.2-1.1.7-.7.9-1.4.9-2.4 0-1.1-.4-2-1.4-2.6-.8-.5-1.6-.5-2.6-.5h-4.7v6.5l4.6.1ZM363.3 13.1c.8 2.6 2.9 3.7 5.6 3.7 1.1 0 2.6-.3 3.3-.9.7-.5 1.2-1.4 1.2-2.4 0-1.9-1.6-2.6-3.2-2.9l-3.1-.8c-1.2-.3-2.4-.5-3.5-1.4-.9-.8-1.4-2.1-1.4-3.3 0-3.5 3.1-5.1 6.4-5.1 3.3 0 5.7 1.4 6.6 4.4l-2.1.5c-.4-2-2.6-3.2-4.7-3.2-1.7 0-4 .9-4 2.9s1.6 2.6 3.5 2.9l2.8.7c1.2.3 2.6.7 3.5 1.4 1.2.9 1.7 2.1 1.7 3.6 0 1.6-.8 3.2-2.1 4.2-1.4 1.1-3.2 1.4-4.9 1.4-3.9 0-6.4-1.6-7.6-5.2l2-.5Z"/><path fill="#E92126" d="M158.6 18.7h-18.7V.1h18.7v18.6Z"/></svg>