<svg xmlns="http://www.w3.org/2000/svg" viewBox="0 0 396 72"><g fill="none" fill-rule="nonzero"><g fill="#1180C4" class="logo__IMC"><path d="M392.505 50.22a20.458 20.458 0 0 1-17.894 9.5c-8.243-.274-15.464-7.04-18.695-18.302-4-13.923-.569-23.434 8.42-27.582 6.948-3.167 14.98.169 17.327 3.525-3.158 1.542-3.716 5.479-3 7.864a7.01 7.01 0 0 0 4.624 4.55 6.985 6.985 0 0 0 6.366-1.204c2.39-1.847 3.042-4.813 2.39-7.779-.727-3.167-3.359-5.71-6.432-7.653a27.312 27.312 0 0 0-14.737-4.138c-14.537-.137-28.021 12.129-28.021 28.933 0 17.311 14.947 27.793 27.79 27.793a27.669 27.669 0 0 0 24.43-13.828c-.168-.126-2.336-1.456-2.568-1.678M332.41 58.116V29.543c0-5.975-.652-10.197-3.473-13.87-3.537-4.613-7.821-6.334-13.421-6.334-7.895 0-14.337 4.782-18.527 10.387a14.79 14.79 0 0 0-2.178-4.011c-3.537-4.613-7.832-6.335-13.432-6.335-7.084-.125-12.959 3.781-17.169 8.615v-7.58H247v1.7h1.053c2.326 0 3.81 1.404 3.81 4.223v41.81c0 2.818-1.484 4.222-3.8 4.222h-1.052v1.71h22.105v-1.74h-1.053c-2.337 0-3.81-1.404-3.81-4.223V24.402c2.779-3.694 7.42-7.78 12.358-7.78a8.759 8.759 0 0 1 7.526 3.494A11.086 11.086 0 0 1 285.916 27v31.117c0 2.808-1.474 4.223-3.8 4.223h-1.053v1.7h22.105v-1.71h-1.052c-2.327 0-3.8-1.405-3.8-4.223V29.532a44.509 44.509 0 0 0-.21-4.76c2.747-3.78 7.536-8.15 12.63-8.15a8.748 8.748 0 0 1 7.517 3.494 11.096 11.096 0 0 1 1.79 6.883v31.117c0 2.808-1.485 4.223-3.811 4.223h-1.053v1.7h22.105v-1.71h-1.052c-2.327 0-3.81-1.405-3.81-4.223M216 12.126h1.053c2.326 0 3.81 1.404 3.81 4.222v41.357c0 2.808-1.474 4.665-3.8 4.665h-1.052v1.7h22.105v-1.69h-1.053c-2.326 0-3.8-1.403-3.8-4.221v-41.81c0-2.809 1.474-4.223 3.8-4.223h1.053v-1.71H216.01l-.01 1.71z"/></g><g class="logo__shape"><g class="logo__outer-hor-blobs"><path fill="#D9E2F0" d="M12 24c6 0 9-5 12-5s5.5 5 12 5 12-5 12-12S42.5 0 36 0s-9 5-12 5-5.5-5-12-5S0 5 0 12s6 12 12 12z"/><path fill="#C8E4E2" d="M12 48c6 0 9-5 12-5s5.5 5 12 5 12-5 12-12-5.5-12-12-12-9 5-12 5-5.5-5-12-5S0 29 0 36s6 12 12 12z"/><path fill="#9BD3D0" d="M12 72c6 0 9-5 12-5s5.5 5 12 5 12-5 12-12-5.5-12-12-12-9 5-12 5-5.5-5-12-5S0 53 0 60s6 12 12 12z"/><path fill="#CDDBEE" d="M36 24c6 0 9-5 12-5s5.5 5 12 5 12-5 12-12S66.5 0 60 0s-9 5-12 5-5.5-5-12-5-12 5-12 12 6 12 12 12z"/><path fill="#91CFCE" d="M36 48c6 0 9-5 12-5s5.5 5 12 5 12-5 12-12-5.5-12-12-12-9 5-12 5-5.5-5-12-5-12 5-12 12 6 12 12 12z"/><path fill="#D0E1F0" d="M36 72c6 0 9-5 12-5s5.5 5 12 5 12-5 12-12-5.5-12-12-12-9 5-12 5-5.5-5-12-5-12 5-12 12 6 12 12 12z"/><path fill="#CDDBEE" d="M60 24c6 0 9-5 12-5s5.5 5 12 5 12-5 12-12S90.5 0 84 0s-9 5-12 5-5.5-5-12-5-12 5-12 12 6 12 12 12z"/><path fill="#90C6CA" d="M60 48c6 0 9-5 12-5s5.5 5 12 5 12-5 12-12-5.5-12-12-12-9 5-12 5-5.5-5-12-5-12 5-12 12 6 12 12 12z"/><path fill="#D0E1F0" d="M60 72c6 0 9-5 12-5s5.5 5 12 5 12-5 12-12-5.5-12-12-12-9 5-12 5-5.5-5-12-5-12 5-12 12 6 12 12 12z"/><path fill="#BFD3EA" d="M84 24c6 0 9-5 12-5s5.5 5 12 5 12-5 12-12-5.5-12-12-12-9 5-12 5-5.5-5-12-5-12 5-12 12 6 12 12 12z"/><path fill="#9CBFE2" d="M84 48c6 0 9-5 12-5s5.5 5 12 5 12-5 12-12-5.5-12-12-12-9 5-12 5-5.5-5-12-5-12 5-12 12 6 12 12 12z"/><path fill="#CDDBEE" d="M84 72c6 0 9-5 12-5s5.5 5 12 5 12-5 12-12-5.5-12-12-12-9 5-12 5-5.5-5-12-5-12 5-12 12 6 12 12 12z"/><path fill="#B6CEE7" d="M108 24c6 0 9-5 12-5s5.5 5 12 5 12-5 12-12-5.5-12-12-12-9 5-12 5-5.5-5-12-5-12 5-12 12 6 12 12 12z"/><path fill="#8FBAE0" d="M108 48c6 0 9-5 12-5s5.5 5 12 5 12-5 12-12-5.5-12-12-12-9 5-12 5-5.5-5-12-5-12 5-12 12 6 12 12 12z"/><path fill="#B9D0E9" d="M108 72c6 0 9-5 12-5s5.5 5 12 5 12-5 12-12-5.5-12-12-12-9 5-12 5-5.5-5-12-5-12 5-12 12 6 12 12 12z"/><path fill="#8BB7DF" d="M132 24c6 0 9-5 12-5s5.5 5 12 5 12-5 12-12-5.5-12-12-12-9 5-12 5-5.5-5-12-5-12 5-12 12 6 12 12 12zm0 24c6 0 9-5 12-5s5.5 5 12 5 12-5 12-12-5.5-12-12-12-9 5-12 5-5.5-5-12-5-12 5-12 12 6 12 12 12z"/><path fill="#98BDE0" d="M132 72c6 0 9-5 12-5s5.5 5 12 5 12-5 12-12-5.5-12-12-12-9 5-12 5-5.5-5-12-5-12 5-12 12 6 12 12 12z"/><path fill="#8BB7DF" d="M156 24c6 0 9-5 12-5s5.5 5 12 5 12-5 12-12-5.5-12-12-12-9 5-12 5-5.5-5-12-5-12 5-12 12 6 12 12 12zm0 24c6 0 9-5 12-5s5.5 5 12 5 12-5 12-12-5.5-12-12-12-9 5-12 5-5.5-5-12-5-12 5-12 12 6 12 12 12z"/><path fill="#98BBE0" d="M156 72c6 0 9-5 12-5s5.5 5 12 5 12-5 12-12-5.5-12-12-12-9 5-12 5-5.5-5-12-5-12 5-12 12 6 12 12 12z"/></g><g class="logo__outer-ver-blobs"><path fill="#D9E2F0" d="M0 12c0 6 5 9 5 12s-5 5.5-5 12 5 12 12 12 12-5.5 12-12-5-9-5-12 5-5.5 5-12S19 0 12 0 0 6 0 12z"/><path fill="#A6D7D5" d="M0 36c0 6 5 9 5 12s-5 5.5-5 12 5 12 12 12 12-5.5 12-12-5-9-5-12 5-5.5 5-12-5-12-12-12S0 30 0 36z"/><path fill="#D9E2F0" d="M24 12c0 6 5 9 5 12s-5 5.5-5 12 5 12 12 12 12-5.5 12-12-5-9-5-12 5-5.5 5-12S43 0 36 0 24 6 24 12z"/><path fill="#CDE7E3" d="M24 36c0 6 5 9 5 12s-5 5.5-5 12 5 12 12 12 12-5.5 12-12-5-9-5-12 5-5.5 5-12-5-12-12-12-12 6-12 12z"/><path fill="#CDDBEE" d="M48 12c0 6 5 9 5 12s-5 5.5-5 12 5 12 12 12 12-5.5 12-12-5-9-5-12 5-5.5 5-12S67 0 60 0 48 6 48 12z"/><path fill="#CDDBEE" d="M48 36c0 6 5 9 5 12s-5 5.5-5 12 5 12 12 12 12-5.5 12-12-5-9-5-12 5-5.5 5-12-5-12-12-12-12 6-12 12z"/><path fill="#BFD3EA" d="M72 12c0 6 5 9 5 12s-5 5.5-5 12 5 12 12 12 12-5.5 12-12-5-9-5-12 5-5.5 5-12S91 0 84 0 72 6 72 12z"/><path fill="#BFD3EA" d="M72 36c0 6 5 9 5 12s-5 5.5-5 12 5 12 12 12 12-5.5 12-12-5-9-5-12 5-5.5 5-12-5-12-12-12-12 6-12 12z"/><path fill="#A4C2E3" d="M96 12c0 6 5 9 5 12s-5 5.5-5 12 5 12 12 12 12-5.5 12-12-5-9-5-12 5-5.5 5-12-5-12-12-12-12 6-12 12z"/><path fill="#BFD3EA" d="M96 36c0 6 5 9 5 12s-5 5.5-5 12 5 12 12 12 12-5.5 12-12-5-9-5-12 5-5.5 5-12-5-12-12-12-12 6-12 12z"/><path fill="#80AFDC" d="M120 12c0 6 5 9 5 12s-5 5.5-5 12 5 12 12 12 12-5.5 12-12-5-9-5-12 5-5.5 5-12-5-12-12-12-12 6-12 12z"/><path fill="#A4C2E3" d="M120 36c0 6 5 9 5 12s-5 5.5-5 12 5 12 12 12 12-5.5 12-12-5-9-5-12 5-5.5 5-12-5-12-12-12-12 6-12 12z"/><path fill="#80AFDC" d="M144 12c0 6 5 9 5 12s-5 5.5-5 12 5 12 12 12 12-5.5 12-12-5-9-5-12 5-5.5 5-12-5-12-12-12-12 6-12 12z"/><path fill="#8BB7DF" d="M144 36c0 6 5 9 5 12s-5 5.5-5 12 5 12 12 12 12-5.5 12-12-5-9-5-12 5-5.5 5-12-5-12-12-12-12 6-12 12z"/><path fill="#6BA3D6" d="M168 12c0 6 5 9 5 12s-5 5.5-5 12 5 12 12 12 12-5.5 12-12-5-9-5-12 5-5.5 5-12-5-12-12-12-12 6-12 12z"/><path fill="#79A8D8" d="M168 36c0 6 5 9 5 12s-5 5.5-5 12 5 12 12 12 12-5.5 12-12-5-9-5-12 5-5.5 5-12-5-12-12-12-12 6-12 12z"/></g><g class="logo__outer-dots"><path fill="#BFD3E7" d="M12 24C5.373 24 0 18.627 0 12S5.373 0 12 0s12 5.373 12 12-5.373 12-12 12zm0-7.25a4.75 4.75 0 1 0 0-9.5 4.75 4.75 0 0 0 0 9.5z"/><path fill="#A5C3E1" d="M36 24c-6.627 0-12-5.373-12-12S29.373 0 36 0s12 5.373 12 12-5.373 12-12 12zm0-7.25a4.75 4.75 0 1 0 0-9.5 4.75 4.75 0 0 0 0 9.5z"/><path fill="#8CB7DD" d="M60 24c-6.627 0-12-5.373-12-12S53.373 0 60 0s12 5.373 12 12-5.373 12-12 12zm0-7.25a4.75 4.75 0 1 0 0-9.5 4.75 4.75 0 0 0 0 9.5z"/><path fill="#82B0DA" d="M84 24c-6.627 0-12-5.373-12-12S77.373 0 84 0s12 5.373 12 12-5.373 12-12 12zm0-7.25a4.75 4.75 0 1 0 0-9.5 4.75 4.75 0 0 0 0 9.5z"/><path fill="#519AD0" d="M108 24c-6.627 0-12-5.373-12-12s5.373-12 12-12 12 5.373 12 12-5.373 12-12 12zm0-7.25a4.75 4.75 0 1 0 0-9.5 4.75 4.75 0 0 0 0 9.5z"/><path fill="#1386C6" d="M132 24c-6.627 0-12-5.373-12-12s5.373-12 12-12 12 5.373 12 12-5.373 12-12 12zm0-7.25a4.75 4.75 0 1 0 0-9.5 4.75 4.75 0 0 0 0 9.5z"/><path fill="#1181C0" d="M156 24c-6.627 0-12-5.373-12-12s5.373-12 12-12 12 5.373 12 12-5.373 12-12 12zm0-7.25a4.75 4.75 0 1 0 0-9.5 4.75 4.75 0 0 0 0 9.5z"/><path fill="#1386C6" d="M180 24c-6.627 0-12-5.373-12-12s5.373-12 12-12 12 5.373 12 12-5.373 12-12 12zm0-7.25a4.75 4.75 0 1 0 0-9.5 4.75 4.75 0 0 0 0 9.5z"/><path fill="#81BFC5" d="M12 48C5.373 48 0 42.627 0 36s5.373-12 12-12 12 5.373 12 12-5.373 12-12 12zm0-7.25a4.75 4.75 0 1 0 0-9.5 4.75 4.75 0 0 0 0 9.5z"/><path fill="#64B7BC" d="M36 48c-6.627 0-12-5.373-12-12s5.373-12 12-12 12 5.373 12 12-5.373 12-12 12zm0-7.25a4.75 4.75 0 1 0 0-9.5 4.75 4.75 0 0 0 0 9.5z"/><path fill="#42A5B2" d="M60 48c-6.627 0-12-5.373-12-12s5.373-12 12-12 12 5.373 12 12-5.373 12-12 12zm0-7.25a4.75 4.75 0 1 0 0-9.5 4.75 4.75 0 0 0 0 9.5z"/><path fill="#2E9AB3" d="M84 48c-6.627 0-12-5.373-12-12s5.373-12 12-12 12 5.373 12 12-5.373 12-12 12zm0-7.25a4.75 4.75 0 1 0 0-9.5 4.75 4.75 0 0 0 0 9.5z"/><path fill="#0888B6" d="M108 48c-6.627 0-12-5.373-12-12s5.373-12 12-12 12 5.373 12 12-5.373 12-12 12zm0-7.25a4.75 4.75 0 1 0 0-9.5 4.75 4.75 0 0 0 0 9.5z"/><path fill="#1881C1" d="M132 48c-6.627 0-12-5.373-12-12s5.373-12 12-12 12 5.373 12 12-5.373 12-12 12zm0-7.25a4.75 4.75 0 1 0 0-9.5 4.75 4.75 0 0 0 0 9.5zM156 48c-6.627 0-12-5.373-12-12s5.373-12 12-12 12 5.373 12 12-5.373 12-12 12zm0-7.25a4.75 4.75 0 1 0 0-9.5 4.75 4.75 0 0 0 0 9.5zM180 48c-6.627 0-12-5.373-12-12s5.373-12 12-12 12 5.373 12 12-5.373 12-12 12zm0-7.25a4.75 4.75 0 1 0 0-9.5 4.75 4.75 0 0 0 0 9.5z"/><path fill="#6CC0BD" d="M12 72C5.373 72 0 66.627 0 60s5.373-12 12-12 12 5.373 12 12-5.373 12-12 12zm0-7.25a4.75 4.75 0 1 0 0-9.5 4.75 4.75 0 0 0 0 9.5z"/><path fill="#81C4C5" d="M36 72c-6.627 0-12-5.373-12-12s5.373-12 12-12 12 5.373 12 12-5.373 12-12 12zm0-7.25a4.75 4.75 0 1 0 0-9.5 4.75 4.75 0 0 0 0 9.5z"/><path fill="#B2CBE4" d="M60 72c-6.627 0-12-5.373-12-12s5.373-12 12-12 12 5.373 12 12-5.373 12-12 12zm0-7.25a4.75 4.75 0 1 0 0-9.5 4.75 4.75 0 0 0 0 9.5z"/><path fill="#9CC0E1" d="M84 72c-6.627 0-12-5.373-12-12s5.373-12 12-12 12 5.373 12 12-5.373 12-12 12zm0-7.25a4.75 4.75 0 1 0 0-9.5 4.75 4.75 0 0 0 0 9.5z"/><path fill="#7AA9D6" d="M108 72c-6.627 0-12-5.373-12-12s5.373-12 12-12 12 5.373 12 12-5.373 12-12 12zm0-7.25a4.75 4.75 0 1 0 0-9.5 4.75 4.75 0 0 0 0 9.5z"/><path fill="#619ED1" d="M132 72c-6.627 0-12-5.373-12-12s5.373-12 12-12 12 5.373 12 12-5.373 12-12 12zm0-7.25a4.75 4.75 0 1 0 0-9.5 4.75 4.75 0 0 0 0 9.5z"/><path fill="#1386C6" d="M156 72c-6.627 0-12-5.373-12-12s5.373-12 12-12 12 5.373 12 12-5.373 12-12 12zm0-7.25a4.75 4.75 0 1 0 0-9.5 4.75 4.75 0 0 0 0 9.5zM180 72c-6.627 0-12-5.373-12-12s5.373-12 12-12 12 5.373 12 12-5.373 12-12 12zm0-7.25a4.75 4.75 0 1 0 0-9.5 4.75 4.75 0 0 0 0 9.5z"/></g><g fill="#0D4F90" fill-opacity=".2" class="logo__inner-ver-blobs"><path d="M12 40.75c2.761 0 4.734-2.285 4.75-4.749.016-2.464-3.733-9.546-3.697-12.501.036-2.955 3.697-8.916 3.697-11.5 0-2.584-1.988-4.75-4.75-4.75-2.76 0-4.75 2.166-4.75 4.75s3.727 8.545 3.698 11.5c-.03 2.955-3.68 10.036-3.698 12.5-.017 2.464 1.989 4.75 4.75 4.75z"/><path d="M12 64.75c2.761 0 4.734-2.285 4.75-4.749.016-2.464-3.733-9.546-3.697-12.501.036-2.955 3.697-8.916 3.697-11.5 0-2.584-1.988-4.75-4.75-4.75-2.76 0-4.75 2.166-4.75 4.75s3.727 8.545 3.698 11.5c-.03 2.955-3.68 10.036-3.698 12.5-.017 2.464 1.989 4.75 4.75 4.75zm24-24c2.761 0 4.734-2.285 4.75-4.749.016-2.464-3.733-9.546-3.697-12.501.036-2.955 3.697-8.916 3.697-11.5 0-2.584-1.988-4.75-4.75-4.75-2.76 0-4.75 2.166-4.75 4.75s3.727 8.545 3.698 11.5c-.03 2.955-3.68 10.036-3.698 12.5-.017 2.464 1.989 4.75 4.75 4.75z"/><path d="M36 64.75c2.761 0 4.734-2.285 4.75-4.749.016-2.464-3.733-9.546-3.697-12.501.036-2.955 3.697-8.916 3.697-11.5 0-2.584-1.988-4.75-4.75-4.75-2.76 0-4.75 2.166-4.75 4.75s3.727 8.545 3.698 11.5c-.03 2.955-3.68 10.036-3.698 12.5-.017 2.464 1.989 4.75 4.75 4.75zm24-24c2.761 0 4.734-2.285 4.75-4.749.016-2.464-3.733-9.546-3.697-12.501.036-2.955 3.697-8.916 3.697-11.5 0-2.584-1.988-4.75-4.75-4.75-2.76 0-4.75 2.166-4.75 4.75s3.727 8.545 3.698 11.5c-.03 2.955-3.68 10.036-3.698 12.5-.017 2.464 1.989 4.75 4.75 4.75z"/><path d="M60 64.75c2.761 0 4.734-2.285 4.75-4.749.016-2.464-3.733-9.546-3.697-12.501.036-2.955 3.697-8.916 3.697-11.5 0-2.584-1.988-4.75-4.75-4.75-2.76 0-4.75 2.166-4.75 4.75s3.727 8.545 3.698 11.5c-.03 2.955-3.68 10.036-3.698 12.5-.017 2.464 1.989 4.75 4.75 4.75zm24-24c2.761 0 4.734-2.285 4.75-4.749.016-2.464-3.733-9.546-3.697-12.501.036-2.955 3.697-8.916 3.697-11.5 0-2.584-1.988-4.75-4.75-4.75-2.76 0-4.75 2.166-4.75 4.75s3.727 8.545 3.698 11.5c-.03 2.955-3.68 10.036-3.698 12.5-.017 2.464 1.989 4.75 4.75 4.75z"/><path d="M84 64.75c2.761 0 4.734-2.285 4.75-4.749.016-2.464-3.733-9.546-3.697-12.501.036-2.955 3.697-8.916 3.697-11.5 0-2.584-1.988-4.75-4.75-4.75-2.76 0-4.75 2.166-4.75 4.75s3.727 8.545 3.698 11.5c-.03 2.955-3.68 10.036-3.698 12.5-.017 2.464 1.989 4.75 4.75 4.75zm24-24c2.761 0 4.734-2.285 4.75-4.749.016-2.464-3.733-9.546-3.697-12.501.036-2.955 3.697-8.916 3.697-11.5 0-2.584-1.988-4.75-4.75-4.75-2.76 0-4.75 2.166-4.75 4.75s3.727 8.545 3.698 11.5c-.03 2.955-3.68 10.036-3.698 12.5-.017 2.464 1.989 4.75 4.75 4.75z"/><path d="M108 64.75c2.761 0 4.734-2.285 4.75-4.749.016-2.464-3.733-9.546-3.697-12.501.036-2.955 3.697-8.916 3.697-11.5 0-2.584-1.988-4.75-4.75-4.75-2.76 0-4.75 2.166-4.75 4.75s3.727 8.545 3.698 11.5c-.03 2.955-3.68 10.036-3.698 12.5-.017 2.464 1.989 4.75 4.75 4.75zm24-24c2.761 0 4.734-2.285 4.75-4.749.016-2.464-3.733-9.546-3.697-12.501.036-2.955 3.697-8.916 3.697-11.5 0-2.584-1.988-4.75-4.75-4.75-2.76 0-4.75 2.166-4.75 4.75s3.727 8.545 3.698 11.5c-.03 2.955-3.68 10.036-3.698 12.5-.017 2.464 1.989 4.75 4.75 4.75z"/><path d="M132 64.75c2.761 0 4.734-2.285 4.75-4.749.016-2.464-3.733-9.546-3.697-12.501.036-2.955 3.697-8.916 3.697-11.5 0-2.584-1.988-4.75-4.75-4.75-2.761 0-4.75 2.166-4.75 4.75s3.727 8.545 3.698 11.5c-.03 2.955-3.68 10.036-3.698 12.5-.017 2.464 1.989 4.75 4.75 4.75zm24-24c2.761 0 4.734-2.285 4.75-4.749.016-2.464-3.733-9.546-3.697-12.501.036-2.955 3.697-8.916 3.697-11.5 0-2.584-1.988-4.75-4.75-4.75-2.76 0-4.75 2.166-4.75 4.75s3.727 8.545 3.698 11.5c-.03 2.955-3.68 10.036-3.698 12.5-.017 2.464 1.989 4.75 4.75 4.75z"/><path d="M156 64.75c2.761 0 4.734-2.285 4.75-4.749.016-2.464-3.733-9.546-3.697-12.501.036-2.955 3.697-8.916 3.697-11.5 0-2.584-1.988-4.75-4.75-4.75-2.761 0-4.75 2.166-4.75 4.75s3.727 8.545 3.698 11.5c-.03 2.955-3.68 10.036-3.698 12.5-.017 2.464 1.989 4.75 4.75 4.75zm24-24c2.761 0 4.734-2.285 4.75-4.749.016-2.464-3.733-9.546-3.697-12.501.036-2.955 3.697-8.916 3.697-11.5 0-2.584-1.988-4.75-4.75-4.75-2.76 0-4.75 2.166-4.75 4.75s3.727 8.545 3.698 11.5c-.03 2.955-3.68 10.036-3.698 12.5-.017 2.464 1.989 4.75 4.75 4.75z"/><path d="M180 64.75c2.761 0 4.734-2.285 4.75-4.749.016-2.464-3.733-9.546-3.697-12.501.036-2.955 3.697-8.916 3.697-11.5 0-2.584-1.988-4.75-4.75-4.75-2.761 0-4.75 2.166-4.75 4.75s3.727 8.545 3.698 11.5c-.03 2.955-3.68 10.036-3.698 12.5-.017 2.464 1.989 4.75 4.75 4.75z"/></g><g fill="#114D8F" fill-opacity=".2" class="logo__inner-hor-blobs"><path d="M7.25 12c0 2.761 2.285 4.734 4.749 4.75 2.464.016 9.546-3.733 12.501-3.697 2.955.036 8.916 3.697 11.5 3.697 2.584 0 4.75-1.988 4.75-4.75 0-2.76-2.166-4.75-4.75-4.75s-8.545 3.727-11.5 3.698c-2.955-.03-10.036-3.68-12.5-3.698C9.536 7.233 7.25 9.239 7.25 12z"/><path d="M31.25 12c0 2.761 2.285 4.734 4.749 4.75 2.464.016 9.546-3.733 12.501-3.697 2.955.036 8.916 3.697 11.5 3.697 2.584 0 4.75-1.988 4.75-4.75 0-2.76-2.166-4.75-4.75-4.75s-8.545 3.727-11.5 3.698c-2.955-.03-10.036-3.68-12.5-3.698-2.464-.017-4.75 1.989-4.75 4.75z"/><path d="M55.25 12c0 2.761 2.285 4.734 4.749 4.75 2.464.016 9.546-3.733 12.501-3.697 2.955.036 8.916 3.697 11.5 3.697 2.584 0 4.75-1.988 4.75-4.75 0-2.76-2.166-4.75-4.75-4.75s-8.545 3.727-11.5 3.698c-2.955-.03-10.036-3.68-12.5-3.698-2.464-.017-4.75 1.989-4.75 4.75z"/><path d="M79.25 12c0 2.761 2.285 4.734 4.749 4.75 2.464.016 9.546-3.733 12.501-3.697 2.955.036 8.916 3.697 11.5 3.697 2.584 0 4.75-1.988 4.75-4.75 0-2.76-2.166-4.75-4.75-4.75s-8.545 3.727-11.5 3.698c-2.955-.03-10.036-3.68-12.5-3.698-2.464-.017-4.75 1.989-4.75 4.75z"/><path d="M103.25 12c0 2.761 2.285 4.734 4.749 4.75 2.464.016 9.546-3.733 12.501-3.697 2.955.036 8.916 3.697 11.5 3.697 2.584 0 4.75-1.988 4.75-4.75 0-2.761-2.166-4.75-4.75-4.75s-8.545 3.727-11.5 3.698c-2.955-.03-10.036-3.68-12.5-3.698-2.464-.017-4.75 1.989-4.75 4.75z"/><path d="M127.25 12c0 2.761 2.285 4.734 4.749 4.75 2.464.016 9.546-3.733 12.501-3.697 2.955.036 8.916 3.697 11.5 3.697 2.584 0 4.75-1.988 4.75-4.75 0-2.761-2.166-4.75-4.75-4.75s-8.545 3.727-11.5 3.698c-2.955-.03-10.036-3.68-12.5-3.698-2.464-.017-4.75 1.989-4.75 4.75z"/><path d="M151.25 12c0 2.761 2.285 4.734 4.749 4.75 2.464.016 9.546-3.733 12.501-3.697 2.955.036 8.916 3.697 11.5 3.697 2.584 0 4.75-1.988 4.75-4.75 0-2.761-2.166-4.75-4.75-4.75s-8.545 3.727-11.5 3.698c-2.955-.03-10.036-3.68-12.5-3.698-2.464-.017-4.75 1.989-4.75 4.75zM7.25 36c0 2.761 2.285 4.734 4.749 4.75 2.464.016 9.546-3.733 12.501-3.697 2.955.036 8.916 3.697 11.5 3.697 2.584 0 4.75-1.988 4.75-4.75 0-2.76-2.166-4.75-4.75-4.75s-8.545 3.727-11.5 3.698c-2.955-.03-10.036-3.68-12.5-3.698-2.464-.017-4.75 1.989-4.75 4.75z"/><path d="M31.25 36c0 2.761 2.285 4.734 4.749 4.75 2.464.016 9.546-3.733 12.501-3.697 2.955.036 8.916 3.697 11.5 3.697 2.584 0 4.75-1.988 4.75-4.75 0-2.76-2.166-4.75-4.75-4.75s-8.545 3.727-11.5 3.698c-2.955-.03-10.036-3.68-12.5-3.698-2.464-.017-4.75 1.989-4.75 4.75z"/><path d="M55.25 36c0 2.761 2.285 4.734 4.749 4.75 2.464.016 9.546-3.733 12.501-3.697 2.955.036 8.916 3.697 11.5 3.697 2.584 0 4.75-1.988 4.75-4.75 0-2.76-2.166-4.75-4.75-4.75s-8.545 3.727-11.5 3.698c-2.955-.03-10.036-3.68-12.5-3.698-2.464-.017-4.75 1.989-4.75 4.75z"/><path d="M79.25 36c0 2.761 2.285 4.734 4.749 4.75 2.464.016 9.546-3.733 12.501-3.697 2.955.036 8.916 3.697 11.5 3.697 2.584 0 4.75-1.988 4.75-4.75 0-2.76-2.166-4.75-4.75-4.75s-8.545 3.727-11.5 3.698c-2.955-.03-10.036-3.68-12.5-3.698-2.464-.017-4.75 1.989-4.75 4.75z"/><path d="M103.25 36c0 2.761 2.285 4.734 4.749 4.75 2.464.016 9.546-3.733 12.501-3.697 2.955.036 8.916 3.697 11.5 3.697 2.584 0 4.75-1.988 4.75-4.75 0-2.761-2.166-4.75-4.75-4.75s-8.545 3.727-11.5 3.698c-2.955-.03-10.036-3.68-12.5-3.698-2.464-.017-4.75 1.989-4.75 4.75z"/><path d="M127.25 36c0 2.761 2.285 4.734 4.749 4.75 2.464.016 9.546-3.733 12.501-3.697 2.955.036 8.916 3.697 11.5 3.697 2.584 0 4.75-1.988 4.75-4.75 0-2.761-2.166-4.75-4.75-4.75s-8.545 3.727-11.5 3.698c-2.955-.03-10.036-3.68-12.5-3.698-2.464-.017-4.75 1.989-4.75 4.75z"/><path d="M151.25 36c0 2.761 2.285 4.734 4.749 4.75 2.464.016 9.546-3.733 12.501-3.697 2.955.036 8.916 3.697 11.5 3.697 2.584 0 4.75-1.988 4.75-4.75 0-2.761-2.166-4.75-4.75-4.75s-8.545 3.727-11.5 3.698c-2.955-.03-10.036-3.68-12.5-3.698-2.464-.017-4.75 1.989-4.75 4.75zM7.25 60c0 2.761 2.285 4.734 4.749 4.75 2.464.016 9.546-3.733 12.501-3.697 2.955.036 8.916 3.697 11.5 3.697 2.584 0 4.75-1.988 4.75-4.75 0-2.76-2.166-4.75-4.75-4.75s-8.545 3.727-11.5 3.698c-2.955-.03-10.036-3.68-12.5-3.698-2.464-.017-4.75 1.989-4.75 4.75z"/><path d="M31.25 60c0 2.761 2.285 4.734 4.749 4.75 2.464.016 9.546-3.733 12.501-3.697 2.955.036 8.916 3.697 11.5 3.697 2.584 0 4.75-1.988 4.75-4.75 0-2.76-2.166-4.75-4.75-4.75s-8.545 3.727-11.5 3.698c-2.955-.03-10.036-3.68-12.5-3.698-2.464-.017-4.75 1.989-4.75 4.75z"/><path d="M55.25 60c0 2.761 2.285 4.734 4.749 4.75 2.464.016 9.546-3.733 12.501-3.697 2.955.036 8.916 3.697 11.5 3.697 2.584 0 4.75-1.988 4.75-4.75 0-2.76-2.166-4.75-4.75-4.75s-8.545 3.727-11.5 3.698c-2.955-.03-10.036-3.68-12.5-3.698-2.464-.017-4.75 1.989-4.75 4.75z"/><path d="M79.25 60c0 2.761 2.285 4.734 4.749 4.75 2.464.016 9.546-3.733 12.501-3.697 2.955.036 8.916 3.697 11.5 3.697 2.584 0 4.75-1.988 4.75-4.75 0-2.76-2.166-4.75-4.75-4.75s-8.545 3.727-11.5 3.698c-2.955-.03-10.036-3.68-12.5-3.698-2.464-.017-4.75 1.989-4.75 4.75z"/><path d="M103.25 60c0 2.761 2.285 4.734 4.749 4.75 2.464.016 9.546-3.733 12.501-3.697 2.955.036 8.916 3.697 11.5 3.697 2.584 0 4.75-1.988 4.75-4.75 0-2.761-2.166-4.75-4.75-4.75s-8.545 3.727-11.5 3.698c-2.955-.03-10.036-3.68-12.5-3.698-2.464-.017-4.75 1.989-4.75 4.75z"/><path d="M127.25 60c0 2.761 2.285 4.734 4.749 4.75 2.464.016 9.546-3.733 12.501-3.697 2.955.036 8.916 3.697 11.5 3.697 2.584 0 4.75-1.988 4.75-4.75 0-2.761-2.166-4.75-4.75-4.75s-8.545 3.727-11.5 3.698c-2.955-.03-10.036-3.68-12.5-3.698-2.464-.017-4.75 1.989-4.75 4.75z"/><path d="M151.25 60c0 2.761 2.285 4.734 4.749 4.75 2.464.016 9.546-3.733 12.501-3.697 2.955.036 8.916 3.697 11.5 3.697 2.584 0 4.75-1.988 4.75-4.75 0-2.761-2.166-4.75-4.75-4.75s-8.545 3.727-11.5 3.698c-2.955-.03-10.036-3.68-12.5-3.698-2.464-.017-4.75 1.989-4.75 4.75z"/></g><g class="logo__inner-dots" transform="translate(7.25 7.25)"><circle cx="4.75" cy="4.75" r="4.75" fill="#76A1CC"/><circle cx="28.75" cy="4.75" r="4.75" fill="#6A91C2"/><circle cx="52.75" cy="4.75" r="4.75" fill="#4981B3"/><circle cx="76.75" cy="4.75" r="4.75" fill="#406EA7"/><circle cx="100.75" cy="4.75" r="4.75" fill="#055293"/><circle cx="124.75" cy="4.75" r="4.75" fill="#1C4787"/><circle cx="148.75" cy="4.75" r="4.75" fill="#1F4686"/><circle cx="172.75" cy="4.75" r="4.75" fill="#114D8F"/><circle cx="4.75" cy="28.75" r="4.75" fill="#0492A0"/><circle cx="28.75" cy="28.75" r="4.75" fill="#018188"/><circle cx="52.75" cy="28.75" r="4.75" fill="#067581"/><circle cx="76.75" cy="28.75" r="4.75" fill="#056B80"/><circle cx="100.75" cy="28.75" r="4.75" fill="#005782"/><circle cx="124.75" cy="28.75" r="4.75" fill="#204580"/><circle cx="148.75" cy="28.75" r="4.75" fill="#1F4686"/><circle cx="172.75" cy="28.75" r="4.75" fill="#1A4888"/><circle cx="4.75" cy="52.75" r="4.75" fill="#029DA2"/><circle cx="28.75" cy="52.75" r="4.75" fill="#0598A6"/><circle cx="52.75" cy="52.75" r="4.75" fill="#3A98BF"/><circle cx="76.75" cy="52.75" r="4.75" fill="#467EB3"/><circle cx="100.75" cy="52.75" r="4.75" fill="#2A5F9D"/><circle cx="124.75" cy="52.75" r="4.75" fill="#1C4787"/><circle cx="148.75" cy="52.75" r="4.75" fill="#1F4686"/><circle cx="172.75" cy="52.75" r="4.75" fill="#19498A"/></g></g></g></svg>