<svg xmlns="http://www.w3.org/2000/svg" width="153" height="38" fill="currentColor" viewBox="0 0 173 38"><path d="M15.902.57a15.187 15.187 0 0 0-5.873 1.078 14.672 14.672 0 0 0-4.934 3.24C2.31 7.631.75 11.31.75 15.14c0 3.83 1.56 7.509 4.345 10.253a15.211 15.211 0 0 0 4.91 3.16 15.723 15.723 0 0 0 5.798 1.118c1.99.004 3.962-.368 5.802-1.095a15.22 15.22 0 0 0 4.924-3.14 14.51 14.51 0 0 0 3.296-4.707 14.012 14.012 0 0 0 1.166-5.558 14.012 14.012 0 0 0-1.142-5.563 14.503 14.503 0 0 0-3.275-4.72 14.518 14.518 0 0 0-4.866-3.226A15.031 15.031 0 0 0 15.902.57Zm0 25.255a11.602 11.602 0 0 1-6.205-1.831 10.904 10.904 0 0 1-4.118-4.812 10.38 10.38 0 0 1-.661-6.192 10.654 10.654 0 0 1 3.014-5.512 10.827 10.827 0 0 1 3.632-2.418 11.212 11.212 0 0 1 4.338-.82c1.486.009 2.955.3 4.323.855a11.29 11.29 0 0 1 3.647 2.383 10.653 10.653 0 0 1 3.015 5.512 10.38 10.38 0 0 1-.662 6.192 10.904 10.904 0 0 1-4.118 4.812 11.602 11.602 0 0 1-6.205 1.831ZM45.486 8.47a9.392 9.392 0 0 0-4.367 1 8.95 8.95 0 0 0-3.333 2.886v-3.41H34.05v28.06h3.782V25.825a8.9 8.9 0 0 0 3.35 2.82 9.328 9.328 0 0 0 4.35.936 11.028 11.028 0 0 0 4.093-.764 10.672 10.672 0 0 0 3.472-2.215c1.967-2.068 3.073-4.756 3.107-7.555-.008-2.803-1.118-5.5-3.107-7.555-1-.958-2.186-1.718-3.491-2.236a11.165 11.165 0 0 0-4.119-.786Zm-.405 3.497a7.488 7.488 0 0 1 2.836.523 7.24 7.24 0 0 1 2.395 1.548 6.896 6.896 0 0 1 1.57 2.324c.354.868.522 1.796.493 2.728 0 1.86-.77 3.645-2.143 4.96-1.372 1.316-3.233 2.055-5.174 2.055-1.94 0-3.801-.739-5.174-2.054-1.372-1.316-2.143-3.1-2.143-4.96-.029-.936.14-1.868.498-2.74a6.898 6.898 0 0 1 1.581-2.329 7.245 7.245 0 0 1 2.41-1.545 7.49 7.49 0 0 1 2.85-.51ZM64.938 3.418l-3.782 1.08v4.446h-4.053v3.497h4.053v10.792c0 2.159.54 3.756 1.756 4.792a7.815 7.815 0 0 0 4.728 1.295 21.097 21.097 0 0 0 2.702-.259h.135v-3.238h-.54c-2.162.13-3.648.26-4.323-.518-.54-.388-.676-1.079-.676-2.072V12.441h5.539V8.944h-5.539V3.418ZM78.447 8.987h-3.918V29.19h3.918V8.987ZM76.556.698c-.681 0-1.334.26-1.815.721a2.41 2.41 0 0 0-.752 1.74c.003.316.072.63.204.92.131.29.323.551.562.769.24.218.523.387.832.497.31.11.639.16.969.145.32.002.636-.058.932-.174a2.43 2.43 0 0 0 .79-.505c.226-.217.405-.475.527-.758.122-.284.184-.587.182-.894a2.385 2.385 0 0 0-.697-1.701 2.593 2.593 0 0 0-1.734-.76ZM91.82 25.176l-6.484-16.19h-4.052l8.375 20.075h4.323l8.375-19.945v-.13h-4.052l-6.485 16.19ZM113.704 8.47a11.09 11.09 0 0 0-4.275.726 10.724 10.724 0 0 0-3.621 2.298 10.218 10.218 0 0 0-2.368 3.49 9.884 9.884 0 0 0-.723 4.105 10.191 10.191 0 0 0 .766 4.075 10.541 10.541 0 0 0 2.341 3.48 11.334 11.334 0 0 0 3.741 2.269c1.391.51 2.875.752 4.364.71 1.809.07 3.606-.312 5.216-1.106a10.338 10.338 0 0 0 3.97-3.427l-3.107-1.684v-.13l-.135.13a6.601 6.601 0 0 1-2.563 2.15 6.92 6.92 0 0 1-3.336.656 7.42 7.42 0 0 1-4.747-1.39 6.88 6.88 0 0 1-2.682-4.006h17.426v-.13a6.06 6.06 0 0 0 .135-1.554c.076-2.718-.94-5.36-2.837-7.382a9.906 9.906 0 0 0-3.408-2.435 10.29 10.29 0 0 0-4.157-.846Zm0 3.496a6.608 6.608 0 0 1 4.458 1.53 6.092 6.092 0 0 1 2.161 4.039h-13.778c.247-1.62 1.121-3.091 2.447-4.123a7.008 7.008 0 0 1 4.712-1.446ZM137.749 8.728a6.767 6.767 0 0 0-3.732.817 6.386 6.386 0 0 0-2.617 2.68V8.987h-3.782v20.075h3.782v-10.62a5.985 5.985 0 0 1 .336-2.423 6.15 6.15 0 0 1 1.285-2.11 6.347 6.347 0 0 1 2.211-1.18 6.517 6.517 0 0 1 2.517-.245h.135V8.728h-.135Z"/><path fill="#F30" d="m172.061 27.897-13.058-26.81a.718.718 0 0 0-.305-.403.766.766 0 0 0-.506-.114h-2.431a.766.766 0 0 0-.506.114.718.718 0 0 0-.305.404l-11.347 26.809a.791.791 0 0 0 .064.8.845.845 0 0 0 .323.277.89.89 0 0 0 .424.088h26.882c.63 0 1.215-.69.765-1.165Zm-16.075-15.542 5.628 11.397a.888.888 0 0 1-.057.848.956.956 0 0 1-.32.311.996.996 0 0 1-.433.136h-10.357a1.095 1.095 0 0 1-.449-.128 1.045 1.045 0 0 1-.347-.302.99.99 0 0 1-.149-.865l4.863-11.397a.88.88 0 0 1 .332-.355.928.928 0 0 1 .957 0 .88.88 0 0 1 .332.355Z"/></svg>